<mxfile host="app.diagrams.net" agent="Mozilla/5.0 (Windows NT 10.0; Win64; x64) AppleWebKit/537.36 (KHTML, like Gecko) Chrome/131.0.0.0 Safari/537.36" version="24.8.8">
  <diagram name="Page-1" id="Oa7Kpcv20TyTfd5tUC3H">
    <mxGraphModel dx="230" dy="133" grid="1" gridSize="10" guides="1" tooltips="1" connect="1" arrows="1" fold="1" page="1" pageScale="1" pageWidth="850" pageHeight="1100" math="0" shadow="0">
      <root>
        <mxCell id="0" />
        <mxCell id="1" parent="0" />
        <mxCell id="iME_1mmJj4JnQnYkAXaE-13" style="edgeStyle=orthogonalEdgeStyle;rounded=0;orthogonalLoop=1;jettySize=auto;html=1;exitX=1;exitY=0.5;exitDx=0;exitDy=0;entryX=0;entryY=0.5;entryDx=0;entryDy=0;" edge="1" parent="1" source="iME_1mmJj4JnQnYkAXaE-1" target="iME_1mmJj4JnQnYkAXaE-6">
          <mxGeometry relative="1" as="geometry" />
        </mxCell>
        <mxCell id="iME_1mmJj4JnQnYkAXaE-14" style="edgeStyle=orthogonalEdgeStyle;rounded=0;orthogonalLoop=1;jettySize=auto;html=1;exitX=1;exitY=0.75;exitDx=0;exitDy=0;entryX=0;entryY=0.25;entryDx=0;entryDy=0;" edge="1" parent="1" source="iME_1mmJj4JnQnYkAXaE-1" target="iME_1mmJj4JnQnYkAXaE-8">
          <mxGeometry relative="1" as="geometry">
            <mxPoint x="470" y="660" as="targetPoint" />
            <Array as="points">
              <mxPoint x="450" y="595" />
              <mxPoint x="450" y="675" />
            </Array>
          </mxGeometry>
        </mxCell>
        <mxCell id="iME_1mmJj4JnQnYkAXaE-1" value="Raspberry Pi zero" style="rounded=1;whiteSpace=wrap;html=1;" vertex="1" parent="1">
          <mxGeometry x="275" y="550" width="120" height="60" as="geometry" />
        </mxCell>
        <mxCell id="iME_1mmJj4JnQnYkAXaE-2" value="" style="endArrow=classic;html=1;rounded=0;entryX=0.5;entryY=0;entryDx=0;entryDy=0;fillColor=#f8cecc;strokeColor=#b85450;strokeWidth=4;exitX=0.5;exitY=1;exitDx=0;exitDy=0;" edge="1" parent="1" source="iME_1mmJj4JnQnYkAXaE-15" target="iME_1mmJj4JnQnYkAXaE-1">
          <mxGeometry width="50" height="50" relative="1" as="geometry">
            <mxPoint x="335" y="440" as="sourcePoint" />
            <mxPoint x="440" y="570" as="targetPoint" />
          </mxGeometry>
        </mxCell>
        <mxCell id="iME_1mmJj4JnQnYkAXaE-3" value="5V" style="text;html=1;align=center;verticalAlign=middle;whiteSpace=wrap;rounded=0;" vertex="1" parent="1">
          <mxGeometry x="340" y="410" width="60" height="30" as="geometry" />
        </mxCell>
        <mxCell id="iME_1mmJj4JnQnYkAXaE-5" style="edgeStyle=orthogonalEdgeStyle;rounded=0;orthogonalLoop=1;jettySize=auto;html=1;exitX=0.5;exitY=0;exitDx=0;exitDy=0;entryX=0.5;entryY=1;entryDx=0;entryDy=0;" edge="1" parent="1" source="iME_1mmJj4JnQnYkAXaE-4" target="iME_1mmJj4JnQnYkAXaE-1">
          <mxGeometry relative="1" as="geometry" />
        </mxCell>
        <mxCell id="iME_1mmJj4JnQnYkAXaE-4" value="Pi Camera" style="rounded=1;whiteSpace=wrap;html=1;" vertex="1" parent="1">
          <mxGeometry x="300" y="650" width="70" height="40" as="geometry" />
        </mxCell>
        <mxCell id="iME_1mmJj4JnQnYkAXaE-6" value="Servo Motor 2" style="rounded=1;whiteSpace=wrap;html=1;" vertex="1" parent="1">
          <mxGeometry x="540" y="570" width="120" height="60" as="geometry" />
        </mxCell>
        <mxCell id="iME_1mmJj4JnQnYkAXaE-7" value="Servo Motor 1" style="rounded=1;whiteSpace=wrap;html=1;" vertex="1" parent="1">
          <mxGeometry x="540" y="490" width="120" height="60" as="geometry" />
        </mxCell>
        <mxCell id="iME_1mmJj4JnQnYkAXaE-8" value="Servo Motor 3" style="rounded=1;whiteSpace=wrap;html=1;" vertex="1" parent="1">
          <mxGeometry x="540" y="660" width="120" height="60" as="geometry" />
        </mxCell>
        <mxCell id="iME_1mmJj4JnQnYkAXaE-9" value="" style="endArrow=classic;html=1;rounded=0;entryX=0;entryY=0.75;entryDx=0;entryDy=0;fillColor=#f8cecc;strokeColor=#b85450;strokeWidth=3;" edge="1" parent="1" target="iME_1mmJj4JnQnYkAXaE-7">
          <mxGeometry width="50" height="50" relative="1" as="geometry">
            <mxPoint x="340" y="440" as="sourcePoint" />
            <mxPoint x="490" y="530" as="targetPoint" />
            <Array as="points">
              <mxPoint x="490" y="440" />
              <mxPoint x="490" y="535" />
            </Array>
          </mxGeometry>
        </mxCell>
        <mxCell id="iME_1mmJj4JnQnYkAXaE-10" value="" style="endArrow=classic;html=1;rounded=0;entryX=0;entryY=0.75;entryDx=0;entryDy=0;fillColor=#f8cecc;strokeColor=#b85450;strokeWidth=3;" edge="1" parent="1" target="iME_1mmJj4JnQnYkAXaE-6">
          <mxGeometry width="50" height="50" relative="1" as="geometry">
            <mxPoint x="490" y="520" as="sourcePoint" />
            <mxPoint x="570" y="560" as="targetPoint" />
            <Array as="points">
              <mxPoint x="490" y="615" />
            </Array>
          </mxGeometry>
        </mxCell>
        <mxCell id="iME_1mmJj4JnQnYkAXaE-11" value="" style="endArrow=classic;html=1;rounded=0;entryX=0;entryY=0.75;entryDx=0;entryDy=0;fillColor=#f8cecc;strokeColor=#b85450;strokeWidth=3;" edge="1" parent="1" target="iME_1mmJj4JnQnYkAXaE-8">
          <mxGeometry width="50" height="50" relative="1" as="geometry">
            <mxPoint x="490" y="600" as="sourcePoint" />
            <mxPoint x="510" y="650" as="targetPoint" />
            <Array as="points">
              <mxPoint x="490" y="705" />
            </Array>
          </mxGeometry>
        </mxCell>
        <mxCell id="iME_1mmJj4JnQnYkAXaE-12" value="" style="endArrow=classic;html=1;rounded=0;exitX=1;exitY=0.25;exitDx=0;exitDy=0;entryX=0;entryY=0.5;entryDx=0;entryDy=0;" edge="1" parent="1" source="iME_1mmJj4JnQnYkAXaE-1" target="iME_1mmJj4JnQnYkAXaE-7">
          <mxGeometry width="50" height="50" relative="1" as="geometry">
            <mxPoint x="320" y="630" as="sourcePoint" />
            <mxPoint x="430" y="520" as="targetPoint" />
            <Array as="points">
              <mxPoint x="450" y="565" />
              <mxPoint x="450" y="520" />
            </Array>
          </mxGeometry>
        </mxCell>
        <mxCell id="iME_1mmJj4JnQnYkAXaE-15" value="USB" style="rounded=1;whiteSpace=wrap;html=1;" vertex="1" parent="1">
          <mxGeometry x="315" y="380" width="40" height="40" as="geometry" />
        </mxCell>
        <mxCell id="iME_1mmJj4JnQnYkAXaE-16" value="" style="shape=flexArrow;endArrow=classic;html=1;rounded=0;fillColor=#f8cecc;strokeColor=#b85450;" edge="1" parent="1">
          <mxGeometry width="50" height="50" relative="1" as="geometry">
            <mxPoint x="195" y="340" as="sourcePoint" />
            <mxPoint x="275" y="340" as="targetPoint" />
          </mxGeometry>
        </mxCell>
        <mxCell id="iME_1mmJj4JnQnYkAXaE-17" value="Power&lt;div&gt;&lt;br&gt;&lt;/div&gt;" style="text;html=1;align=center;verticalAlign=middle;whiteSpace=wrap;rounded=0;" vertex="1" parent="1">
          <mxGeometry x="280" y="330" width="60" height="30" as="geometry" />
        </mxCell>
        <mxCell id="iME_1mmJj4JnQnYkAXaE-18" value="" style="endArrow=classic;html=1;rounded=0;" edge="1" parent="1">
          <mxGeometry width="50" height="50" relative="1" as="geometry">
            <mxPoint x="375" y="340" as="sourcePoint" />
            <mxPoint x="430" y="340" as="targetPoint" />
          </mxGeometry>
        </mxCell>
        <mxCell id="iME_1mmJj4JnQnYkAXaE-19" value="Signal" style="text;html=1;align=center;verticalAlign=middle;whiteSpace=wrap;rounded=0;" vertex="1" parent="1">
          <mxGeometry x="425" y="320" width="60" height="30" as="geometry" />
        </mxCell>
      </root>
    </mxGraphModel>
  </diagram>
</mxfile>
